<?xml version="1.0" encoding="UTF-8"?>
<!DOCTYPE svg PUBLIC "-//W3C//DTD SVG 1.1//EN" "http://www.w3.org/Graphics/SVG/1.1/DTD/svg11.dtd">
<svg version="1.1" id="Layer_1" xmlns="http://www.w3.org/2000/svg" xmlns:xlink="http://www.w3.org/1999/xlink" x="0px" y="0px" width="24px" height="24px" viewBox="0 0 24 24" enable-background="new 0 0 24 24" xml:space="preserve">
  <g id="icon">
    <circle cx="12" cy="12" r="10.9899" fill="#5AC4F9"/>
    <path d="M19.8289,4.2868c-0.015,-0.015,0.0124,0.0133,-0.0584,-0.0573l-15.541,15.541c0.0706,0.0708,0.0422,0.0434,0.0573,0.0584c4.2918,4.2918,11.1796,4.2211,15.4714,-0.0707S24.1208,8.5786,19.8289,4.2868z" fill="#40BBF8"/>
    <path d="M15.2345,5.9567c0.503,0,0.9107,0.8822,0.9107,1.9705s-0.4077,1.9705,-0.9107,1.9705c-0.503,0,-0.9107,-0.8822,-0.9107,-1.9705S14.7315,5.9567,15.2345,5.9567zM8.7435,5.9567c0.503,0,0.9107,0.8822,0.9107,1.9705s-0.4077,1.9705,-0.9107,1.9705c-0.503,0,-0.9107,-0.8822,-0.9107,-1.9705S8.2406,5.9567,8.7435,5.9567z" fill-rule="evenodd" fill="#056291"/>
    <path d="M11.9907,15.1109c3.5303,0,5.3301,1.5575,6.26,2.738c0.1865,0.2368,0.6222,0.0429,0.5398,-0.2325c-0.6045,-2.0209,-3.2695,-4.417,-6.7999,-4.417c-3.5995,0,-6.1261,2.2922,-6.5864,4.601c-0.0528,0.2647,0.3885,0.4901,0.5255,0.2385C6.6952,16.6338,8.6334,15.1109,11.9907,15.1109z" fill-rule="evenodd" fill="#056291"/>
  </g>
</svg>
