<svg width="42" height="48" viewBox="0 0 42 48" fill="none" xmlns="http://www.w3.org/2000/svg">
<g clip-path="url(#clip0)">
<path d="M0 47.8954L8.37727 36.2965L25.5121 36.2103L5.5797 31.5105L0 10.3156V47.8954Z" fill="#1084C3"/>
<path d="M0 47.8954L8.31775 36.3241L8.43757 44.0276L0 47.8954Z" fill="#2270B4"/>
<path d="M25.305 25.3403C24.9417 26.0277 24.6726 26.5898 24.2707 27.102C20.5331 31.8664 8.37882 29.0528 8.37882 29.0528V11.8658C8.37882 11.8658 22.451 9.50433 25.2926 13.7128C25.3575 13.809 25.2779 10.2187 25.2779 10.2187L5.72425 2.02466C5.72425 2.02466 3.11838 3.33112 2.06784 4.40382C0.409703 6.05324 0 7.95411 0 10.3156L5.52017 31.615L25.3173 36.2826L25.305 25.3403Z" fill="#2270B4"/>
<path d="M40.958 2.70289C40.958 2.70289 41.6073 4.93057 38.9937 4.93057C36.1954 4.93057 29.1462 1.62404 23.0084 0.589021C11.6882 -1.32031 5.64697 2.02467 5.64697 2.02467L25.2006 10.2187L25.2447 35.8597L25.2277 36.0165L25.2455 36.5979L25.2269 44.4205L33.983 22.6136L34.1013 11.6274C34.1732 11.5644 34.2466 11.5098 34.3216 11.4667C36.1366 10.4163 35.107 11.0715 37.9981 9.42206C44.701 5.59725 40.958 2.70289 40.958 2.70289Z" fill="#1084C3"/>
<path d="M25.2275 44.4205L33.9836 22.6136L33.9434 48.0007L25.2275 44.4205Z" fill="#2270B4"/>
</g>
<defs>
<clipPath id="clip0">
<rect width="42" height="48" fill="white"/>
</clipPath>
</defs>
</svg>
